<svg xmlns="http://www.w3.org/2000/svg" width="80" height="80" viewBox="0 0 80 80" role="img" aria-label="Definitions">
  <rect width="80" height="80" rx="17" fill="#0969da"/>
  <rect x="12" y="14" width="37" height="52" rx="6" fill="#ffffff"/>
  <path d="M37 14v13h12" fill="#d9ecff"/>
  <path d="M37 14l12 13H39a2 2 0 0 1-2-2z" fill="#c7e1ff"/>
  <path d="M20 29h17M20 38h19M20 49h15M20 57h20" stroke="#b6cce4" stroke-width="3.5" stroke-linecap="round"/>
  <path d="M20 40h23" stroke="#ffbf1f" stroke-width="4" stroke-linecap="round"/>
  <rect x="51" y="14" width="18" height="52" rx="6" fill="#06347f" stroke="#1aa9ff" stroke-width="2"/>
  <rect x="55" y="27" width="10" height="13" rx="2.5" fill="#ffbf1f"/>
  <path d="M55 49h10" stroke="#2798ff" stroke-width="3" stroke-linecap="round"/>
  <path d="M43 40h10" stroke="#37e5ff" stroke-width="3.5" stroke-linecap="round"/>
  <path d="M50 35l5 5-5 5" fill="none" stroke="#37e5ff" stroke-width="3.5" stroke-linecap="round" stroke-linejoin="round"/>
</svg>
